<?xml version="1.0" encoding="UTF-8" standalone="no"?>
<svg
   version="1.1"
   width="477"
   height="477"
   id="svg29"
   sodipodi:docname="chams.svg"
   inkscape:version="1.4.2 (f4327f4, 2025-05-13)"
   xmlns:inkscape="http://www.inkscape.org/namespaces/inkscape"
   xmlns:sodipodi="http://sodipodi.sourceforge.net/DTD/sodipodi-0.dtd"
   xmlns="http://www.w3.org/2000/svg"
   xmlns:svg="http://www.w3.org/2000/svg">
  <defs
     id="defs29" />
  <sodipodi:namedview
     id="namedview29"
     pagecolor="#ffffff"
     bordercolor="#000000"
     borderopacity="0.25"
     inkscape:showpageshadow="2"
     inkscape:pageopacity="0.0"
     inkscape:pagecheckerboard="0"
     inkscape:deskcolor="#d1d1d1"
     inkscape:zoom="1.1963002"
     inkscape:cx="152.13573"
     inkscape:cy="207.72378"
     inkscape:window-width="1920"
     inkscape:window-height="1009"
     inkscape:window-x="-8"
     inkscape:window-y="-8"
     inkscape:window-maximized="1"
     inkscape:current-layer="svg29" />
  <path
     d="M0 0 C0.66019135 0.00182281 1.32038269 0.00364563 2.00057983 0.00552368 C12.12182493 0.0525195 21.45083952 0.64000169 31.25 3.3125 C31.9114502 3.48410645 32.57290039 3.65571289 33.25439453 3.83251953 C38.31301498 5.15292921 43.28432697 6.67952329 48.25 8.3125 C48.97445312 8.54388672 49.69890625 8.77527344 50.4453125 9.01367188 C63.59570306 13.30032746 74.21020787 20.07384916 85.25 28.3125 C86.23871094 29.03695312 87.22742188 29.76140625 88.24609375 30.5078125 C110.95611091 47.87643362 133.3824196 78.65382079 137.578125 107.57421875 C137.73328178 109.05596601 137.87540707 110.53914085 138.00390625 112.0234375 C138.35809313 115.31793771 139.05253543 118.52114099 139.75 121.7578125 C143.59261302 141.39116339 141.70257641 161.2157344 136.25 180.3125 C136.03069824 181.08384277 135.81139648 181.85518555 135.58544922 182.64990234 C129.28637504 203.96294959 117.41936362 222.96325862 102.2890625 239.109375 C100.37957063 241.17250415 98.6373025 243.31173813 96.875 245.5 C93.43375924 249.45902004 89.45194966 251.99175526 84.9765625 254.67578125 C82.64783752 256.07368349 80.46106161 257.55259164 78.25 259.125 C59.57264844 271.45599795 36.8972157 281.52926995 14.25 282.3125 C13.22471191 282.34811035 12.19942383 282.3837207 11.14306641 282.42041016 C-2.51785413 282.80745368 -15.49278219 282.88591577 -28.75 279.3125 C-30.00941406 279.04566406 -31.26882812 278.77882813 -32.56640625 278.50390625 C-67.62014467 270.99054348 -95.22586966 248.848724 -115.75 220.3125 C-116.35972656 219.47203125 -116.96945313 218.6315625 -117.59765625 217.765625 C-123.38404233 209.27716798 -127.08467579 199.85714084 -130.75 190.3125 C-131.18989258 189.1680542 -131.18989258 189.1680542 -131.63867188 188.00048828 C-143.82593356 155.62543574 -143.25227868 117.78106079 -128.8984375 86.0625 C-127.30710692 82.73316316 -125.58794105 79.48409841 -123.80761719 76.25244141 C-122.73389262 74.28295493 -121.71252908 72.29214226 -120.6953125 70.29296875 C-104.37662408 38.92339354 -71.99793832 15.93631044 -38.75 5.3125 C-25.92345411 1.52635091 -13.35944772 -0.05859779 0 0 Z "
     fill="#FED157"
     transform="translate(237.75,96.6875)"
     id="path2" />
  <path
     d="M0 0 C2.3125 0.5 2.3125 0.5 4.125 1.625 C5.9083666 4.440842 5.76277801 6.21940309 5.3125 9.5 C2.58827788 14.13629352 -0.65981116 17.69015958 -4.5 21.375 C-7.85030047 24.64839185 -11.1245603 27.89645685 -14.125 31.5 C-20.51451121 38.98575088 -29.72676882 49.27951641 -38.6875 53.5 C-41.04286713 53.17164956 -42.48010718 52.62872658 -44.5 51.375 C-45.99803179 49.00968665 -46.10609731 47.2816885 -45.56079102 44.55126953 C-41.72567004 35.54297028 -30.70280654 27.36045623 -23.80249023 20.48461914 C-21.98889487 18.67642796 -20.18076566 16.86289235 -18.37304688 15.04882812 C-17.20344581 13.87988726 -16.0335349 12.7112563 -14.86328125 11.54296875 C-14.33189041 11.00955368 -13.80049957 10.47613861 -13.25300598 9.92655945 C-4.01678768 0.74730934 -4.01678768 0.74730934 0 0 Z "
     fill="#FE9249"
     transform="translate(120.6875,350.5)"
     id="path3" />
  <path
     d="M0 0 C2 3 2 3 1.89160156 5.3125 C-1.55954518 15.71508031 -12.42457677 24.85279488 -20.10595703 32.38720703 C-21.77010493 34.01972277 -23.42290121 35.66310954 -25.07421875 37.30859375 C-26.14781048 38.37302862 -27.22200715 39.43685377 -28.296875 40.5 C-28.78138123 40.98025635 -29.26588745 41.4605127 -29.76507568 41.95532227 C-38.77412587 50.77934266 -38.77412587 50.77934266 -43.125 51.5625 C-46.69141711 50.86472274 -47.96888938 50.00604371 -50 47 C-48.6384327 32.16864191 -25.57550843 16.07340663 -15 7 C-14.18789063 6.28070313 -13.37578125 5.56140625 -12.5390625 4.8203125 C-11.90742188 4.26085937 -11.27578125 3.70140625 -10.625 3.125 C-9.97789062 2.55007812 -9.33078125 1.97515625 -8.6640625 1.3828125 C-5.52022482 -1.22967233 -3.87389437 -1.16216831 0 0 Z "
     fill="#FE9249"
     transform="translate(400,75)"
     id="path4" />
  <path
     d="M0 0 C2.9375 0.5 2.9375 0.5 4.875 1.5 C6.63034352 4.80417604 5.80349639 8.0109753 4.9375 11.5 C3.39135745 15.24037318 1.49893268 18.76137485 -0.4375 22.3125 C-0.97117188 23.3113623 -1.50484375 24.31022461 -2.0546875 25.33935547 C-5.63072951 31.98645006 -9.30614863 38.57819772 -13.0625 45.125 C-13.5064209 45.89948486 -13.9503418 46.67396973 -14.40771484 47.47192383 C-20.3444848 57.6409924 -20.3444848 57.6409924 -24.0625 59.5 C-29.36325188 60.06390977 -29.36325188 60.06390977 -32 57.9375 C-33.47119281 54.56241061 -33.01925613 51.94873478 -32.0625 48.5 C-30.5319792 44.99937641 -28.69079037 41.69946778 -26.8125 38.375 C-26.28398437 37.42375244 -25.75546875 36.47250488 -25.2109375 35.49243164 C-5.8257208 0.95113809 -5.8257208 0.95113809 0 0 Z "
     fill="#FE9248"
     transform="translate(155.0625,377.5)"
     id="path5" />
  <path
     d="M0 0 C7.8633118 2.55846726 14.95950591 7.73780967 21.98950195 12.01269531 C25.68151746 14.25276323 29.40219844 16.42495833 33.16796875 18.5390625 C34.02197266 19.02157471 34.87597656 19.50408691 35.75585938 20.0012207 C37.42560273 20.94180665 39.09992671 21.87431949 40.77929688 22.79760742 C45.10230926 25.24268653 48.43824973 27.3607414 51.125 31.69140625 C51.125 34.87885905 50.57960573 36.16686118 48.5 38.56640625 C45.07403995 40.18922943 42.60866708 39.84179631 39.125 38.69140625 C32.25678486 35.55834058 25.98558851 31.36374814 19.68945312 27.23168945 C14.44847059 23.82176448 9.04042612 20.76055885 3.54223633 17.78588867 C-5.91625227 12.60890171 -5.91625227 12.60890171 -7.875 8.69140625 C-8.13640874 5.61985356 -8.31404748 3.49202225 -6.8125 0.75390625 C-4.39800989 -0.57016897 -2.6754778 -0.52952165 0 0 Z "
     fill="#FE9249"
     transform="translate(384.875,316.30859375)"
     id="path6" />
  <path
     d="M0 0 C2.0625 0.9375 2.0625 0.9375 3.875 3.75 C5.11286036 7.0726778 5.33066983 7.78851792 4.0625 10.9375 C-1.18593723 16.40249896 -8.11836449 19.74525291 -14.7578125 23.1953125 C-17.59596483 24.75036893 -20.14122125 26.40642259 -22.75 28.3125 C-27.10738527 31.45153742 -31.61072946 34.24048144 -36.25 36.9375 C-36.93231689 37.34790527 -37.61463379 37.75831055 -38.31762695 38.18115234 C-41.26832887 39.86446549 -43.32941405 40.96853335 -46.76953125 40.79296875 C-49.69028836 39.64045378 -51.12641754 38.51480965 -52.9375 35.9375 C-53.1875 33.0625 -53.1875 33.0625 -51.9375 29.9375 C-46.55831271 24.94863923 -39.86755946 21.35634429 -33.5625 17.6875 C-32.61020508 17.12901367 -31.65791016 16.57052734 -30.67675781 15.99511719 C-3.11694595 -0.10054664 -3.11694595 -0.10054664 0 0 Z "
     fill="#FE9248"
     transform="translate(93.9375,316.0625)"
     id="path7" />
  <path
     d="M0 0 C2.5 1.6875 2.5 1.6875 4 4 C4.09016213 7.51632295 3.18953385 8.78699019 0.85546875 11.41015625 C-2.13571732 14.12309245 -5.22507053 16.08936239 -8.75 18 C-9.37414795 18.34756348 -9.9982959 18.69512695 -10.64135742 19.05322266 C-12.42307962 20.04360649 -14.21135234 21.02217912 -16 22 C-17.43809366 22.79058775 -18.87568932 23.58208295 -20.3125 24.375 C-20.993125 24.75011719 -21.67375 25.12523437 -22.375 25.51171875 C-26.97383524 28.11909409 -31.51614542 30.82409399 -36.06176758 33.52294922 C-37.1236731 34.15160889 -37.1236731 34.15160889 -38.20703125 34.79296875 C-38.8410083 35.1696167 -39.47498535 35.54626465 -40.12817383 35.93432617 C-45.56023573 39.02692434 -45.56023573 39.02692434 -49.0625 38.8125 C-52.07995442 37.97788495 -53.31966965 37.61384721 -55 35 C-55.625 32.6875 -55.625 32.6875 -55 30 C-49.08336601 24.18523058 -42.07613049 20.26170248 -34.9375 16.125 C-33.71951701 15.41442156 -32.50174441 14.70348239 -31.28417969 13.9921875 C-29.48748767 12.94340077 -27.69020333 11.89571379 -25.89077759 10.85162354 C-22.69287667 8.99553134 -19.51589413 7.11163067 -16.36328125 5.1796875 C-15.73236572 4.79925293 -15.1014502 4.41881836 -14.45141602 4.02685547 C-12.89543135 3.08777217 -11.34580868 2.13816829 -9.796875 1.1875 C-6.32923799 -0.28479281 -3.7320882 -0.33164291 0 0 Z "
     fill="#FE9248"
     transform="translate(432,122)"
     id="path8" />
  <path
     d="M0 0 C1.78216164 -0.01902626 1.78216164 -0.01902626 3.60032654 -0.03843689 C4.88472122 -0.03550125 6.16911591 -0.03256561 7.49243164 -0.02954102 C8.8104628 -0.03478287 10.12849396 -0.04002472 11.48646545 -0.04542542 C14.27655604 -0.05435998 17.06636047 -0.05193011 19.85644531 -0.04199219 C23.42897424 -0.03050626 27.00051419 -0.05070459 30.57291317 -0.07990932 C33.98363843 -0.10268793 37.3941321 -0.09580413 40.80493164 -0.09204102 C42.72848732 -0.10889198 42.72848732 -0.10889198 44.69090271 -0.12608337 C45.88216263 -0.11670242 47.07342255 -0.10732147 48.30078125 -0.09765625 C49.34874374 -0.09749008 50.39670624 -0.09732391 51.47642517 -0.09715271 C54.93102209 0.53507658 56.14523062 1.6036576 58.21508789 4.40405273 C58.00080218 10.61833845 58.00080218 10.61833845 55.21508789 13.40405273 C52.68569946 13.6782074 52.68569946 13.6782074 49.4519043 13.71044922 C47.63959824 13.73443031 47.63959824 13.73443031 45.79067993 13.75889587 C43.82353531 13.76693993 43.82353531 13.76693993 41.81665039 13.77514648 C40.46145526 13.78411102 39.10626117 13.79323283 37.75106812 13.80250549 C34.90799554 13.81900752 32.06504088 13.82669764 29.22192383 13.82958984 C25.58088337 13.83497224 21.9409532 13.87263837 18.30022621 13.91833401 C15.50005056 13.94809819 12.70014233 13.95531324 9.89982224 13.95631599 C7.90556799 13.96256372 5.91143042 13.99204428 3.91738892 14.02183533 C2.70288055 14.0157576 1.48837219 14.00967987 0.23706055 14.00341797 C-0.83168304 14.00848862 -1.90042664 14.01355927 -3.0015564 14.01878357 C-5.78491211 13.40405273 -5.78491211 13.40405273 -8.16519165 11.03065491 C-9.78491211 8.40405273 -9.78491211 8.40405273 -9.72241211 5.77905273 C-7.70766988 0.67503908 -5.32565616 0.02747837 0 0 Z "
     fill="#FE9046"
     transform="translate(18.784912109375,231.595947265625)"
     id="path9" />
  <path
     d="M 0,0 C 3.9929591,1.1978877 5.3862573,2.7979657 8.125,5.9375 L 9.9921875,7.9414062 C 15.125,13.538027 17.757799,16.162143 17.757799,16.162143 20.848075,18.490288 22.180651,19.336138 24.6875,21.625 l 2.253906,2.011719 C 29.125,25.9375 29.125,25.9375 31.007812,28.832031 c 2.836134,4.160011 6.369002,7.292631 10.134766,10.605469 1.595703,1.5 1.595703,1.5 3.982422,4.5 -0.02288,3.806674 -0.300036,5.300036 -3,8 -3.427026,0.601008 -5.857965,0.73884 -8.857422,-1.20166 C 31.207477,48.946381 29.288716,47.070334 27.375,45.125 L 25.186279,42.978516 C 23.634456,41.451077 22.09068,39.915429 20.554199,38.372559 18.05717,35.869507 15.533455,33.395935 13.003906,30.925781 11.31388,29.264265 9.6250508,27.60153 7.9375,25.9375 L 5.5458984,23.58667 C -6.838275,11.21445 -6.838275,11.21445 -6.9375,5.0625 -5.564676,1.0247823 -4.3150306,-0.09380501 0,0 Z"
     fill="#fe9249"
     transform="translate(81.875,74.0625)"
     id="path10"
     sodipodi:nodetypes="ccccccccccccccccccc" />
  <path
     d="M0 0 C3.61067957 0.7682297 4.90676597 1.53828428 6.9375 4.625 C6.60942494 9.64819375 4.68708844 13.5947319 2.3125 17.9375 C1.93005127 18.6480957 1.54760254 19.35869141 1.15356445 20.09082031 C-2.68470539 27.11790906 -6.77091436 34.00083083 -10.875 40.875 C-11.52098145 41.95821533 -12.16696289 43.04143066 -12.83251953 44.1574707 C-13.4511084 45.18316162 -14.06969727 46.20885254 -14.70703125 47.265625 C-15.25721924 48.17860352 -15.80740723 49.09158203 -16.37426758 50.03222656 C-21.07086736 57.2452258 -21.07086736 57.2452258 -25 58.75 C-28.0625 58.625 -28.0625 58.625 -31 56.5 C-33.0625 53.625 -33.0625 53.625 -32.83520508 51.23266602 C-32.05434362 48.59747446 -31.08159094 46.43503102 -29.76171875 44.02734375 C-29.28484619 43.15271484 -28.80797363 42.27808594 -28.31665039 41.37695312 C-27.79965576 40.44818359 -27.28266113 39.51941406 -26.75 38.5625 C-26.21818115 37.59892578 -25.6863623 36.63535156 -25.13842773 35.64257812 C-21.39815974 28.91262332 -17.55981066 22.24300279 -13.625 15.625 C-13.14184326 14.80765381 -12.65868652 13.99030762 -12.16088867 13.14819336 C-4.83503464 0.98674176 -4.83503464 0.98674176 0 0 Z "
     fill="#FE9248"
     transform="translate(348.0625,41.375)"
     id="path11" />
  <path
     d="M0 0 C1.12159012 -0.00622879 2.24318024 -0.01245758 3.39875793 -0.01887512 C5.21750679 -0.0050605 5.21750679 -0.0050605 7.07299805 0.0090332 C8.31969772 0.0085347 9.5663974 0.00803619 10.85087585 0.00752258 C13.49155378 0.00986561 16.13143337 0.01803279 18.77197266 0.03613281 C21.47520846 0.05426169 24.17805465 0.06129809 26.88134766 0.05664062 C30.7786779 0.05021528 34.67568992 0.05816824 38.57299805 0.0715332 C39.77942459 0.0706218 40.98585114 0.06971039 42.22883606 0.06877136 C43.92540596 0.08306938 43.92540596 0.08306938 45.65625 0.09765625 C47.14158989 0.10456734 47.14158989 0.10456734 48.65693665 0.11161804 C52.00794216 0.41650799 56.0435994 0.89369705 58.5222168 3.37231445 C58.98939128 9.67916997 58.98939128 9.67916997 57.37487793 12.07461548 C54.7485327 13.91424251 52.82069303 13.75336629 49.62963867 13.76049805 C48.41828247 13.76995453 47.20692627 13.77941101 45.9588623 13.78915405 C44.64945679 13.78308136 43.34005127 13.77700867 41.9909668 13.77075195 C40.63480472 13.77277296 39.27864371 13.77568463 37.92248535 13.77944946 C35.08111213 13.78387161 32.24002195 13.77744568 29.39868164 13.76342773 C25.75669577 13.74633542 22.1153731 13.75617726 18.47341156 13.77414513 C15.67326867 13.78498621 12.873283 13.78153524 10.07313538 13.77376175 C8.0772763 13.77078744 6.08141112 13.77989785 4.08557129 13.78915405 C2.87421509 13.77969757 1.66285889 13.77024109 0.41479492 13.76049805 C-0.65315308 13.75811127 -1.72110107 13.75572449 -2.82141113 13.75326538 C-5.4777832 13.37231445 -5.4777832 13.37231445 -7.32263184 12.06680298 C-9.26447195 9.21832279 -8.83387685 6.69585517 -8.4777832 3.37231445 C-6.12503036 -0.00515324 -3.95899646 -0.00252257 0 0 Z "
     fill="#FE9147"
     transform="translate(408.477783203125,231.627685546875)"
     id="path12" />
  <path
     d="M0 0 C7.66227446 3.28383191 11.66293981 13.07639908 15.4375 20 C16.04408447 21.1039209 16.65066895 22.2078418 17.27563477 23.34521484 C18.49291507 25.56481889 19.7067643 27.78630843 20.91699219 30.00976562 C22.44074611 32.78893944 23.99633444 35.54595839 25.5703125 38.296875 C26.40173917 39.78085943 27.23252265 41.2652045 28.0625 42.75 C28.44575439 43.40468262 28.82900879 44.05936523 29.22387695 44.73388672 C31.68464884 49.22992324 31.94781437 52.1873058 30.625 57.125 C28.625 59.125 28.625 59.125 25.4375 59.375 C22.77184813 58.89540859 21.79596219 58.31881824 19.98510742 56.26586914 C15.39113142 49.44889052 11.19304748 42.45464934 7.125 35.3125 C6.49980469 34.22646484 5.87460938 33.14042969 5.23046875 32.02148438 C3.97780347 29.83645228 2.73421618 27.64618945 1.5 25.45068359 C0.20717597 23.1576043 -1.10247604 20.88358204 -2.4375 18.61572266 C-3.0871875 17.48054199 -3.736875 16.34536133 -4.40625 15.17578125 C-4.99986328 14.15782471 -5.59347656 13.13986816 -6.20507812 12.09106445 C-7.592187 8.57437295 -7.41743941 6.72199224 -6.375 3.125 C-4.2599599 0.78334846 -3.14939193 0.16575747 0 0 Z "
     fill="#FE9249"
     transform="translate(129.375,40.875)"
     id="path13" />
  <path
     d="M0 0 C1.94903541 0.6359788 3.89825362 1.2713977 5.84765625 1.90625 C6.78367676 2.21304688 7.71969727 2.51984375 8.68408203 2.8359375 C13.05166415 4.25095946 17.44966237 5.55923309 21.8515625 6.86328125 C24.3125 7.6875 24.3125 7.6875 26.359375 8.73046875 C29.22241715 10.1333594 32.17297705 10.54526317 35.2890625 11.125 C37.3125 11.6875 37.3125 11.6875 39.3125 13.6875 C39.65740322 17.74011287 39.61413882 19.23504176 37.3125 22.6875 C25.15023526 24.18111146 11.90997912 18.98119784 0.36206055 15.47607422 C-3.85704309 14.19875354 -8.0735771 13.10211335 -12.375 12.125 C-16.95264959 10.99945154 -20.19302307 9.89864096 -23.6875 6.6875 C-24.8125 4.25 -24.8125 4.25 -24.6875 1.6875 C-18.39237427 -7.86372524 -9.17079084 -3.05137223 0 0 Z "
     fill="#FE9249"
     transform="translate(43.6875,178.3125)"
     id="path14" />
  <path
     d="m 0,0 c 3.7423314,0.95007938 6.7560177,2.5413508 10.027344,4.5195312 l 1.869873,1.1000977 c 1.799146,1.0614609 3.590552,2.1349042 5.380127,3.2124024 L 19.8125,10.34375 c 1.543139,0.923766 3.083429,1.852306 4.621094,2.785156 2.344392,1.40406 4.698856,2.785087 7.0625,4.15625 l 2.289795,1.33252 c 1.503485,0.874019 3.008781,1.744935 4.516113,2.612304 7.90858,4.606888 7.90858,4.606888 10.975342,7.602051 0.645163,2.828397 0.244775,5.062695 0,8 -1.503191,1.195683 -3.193353,2.028327 -5,2 -5.609801,-0.503557 -9.539932,-2.673588 -14.3125,-5.4375 L 27.5979,32.049805 C 25.151376,30.6546 22.713616,29.24505 20.277344,27.832031 l -2.34961,-1.354004 C -4.6380554,13.458933 -4.6380554,13.458933 -7.7226562,8.8320313 -7.5597338,5.6550427 -6.8824744,4.0569605 -5.0351562,1.4570312 -2.7226563,-0.16796875 -2.7226563,-0.16796875 0,0 Z"
     fill="#fe9248"
     transform="translate(48.722656,121.16797)"
     id="path15"
     sodipodi:nodetypes="ccccccccccccccccccc" />
  <path
     d="M0 0 C3.26654294 1.11540491 4.63512991 1.98394486 6.5625 4.875 C6.18649626 12.40402719 3.8620461 19.5338411 1.8125 26.75 C1.44789664 28.04463896 1.08372312 29.33939904 0.7199707 30.63427734 C0.00015583 33.19615048 -0.72172065 35.75740866 -1.44482422 38.31835938 C-2.31334746 41.43017605 -3.15351498 44.5467759 -3.97265625 47.671875 C-4.19276367 48.50219238 -4.41287109 49.33250977 -4.63964844 50.18798828 C-5.03467781 51.68435955 -5.42253311 53.18265093 -5.80175781 54.68310547 C-7.44595474 60.82537705 -7.44595474 60.82537705 -10.4375 62.875 C-15.58908634 63.51894829 -15.58908634 63.51894829 -18.10528564 61.60914612 C-20.56020809 58.41356861 -19.79867134 54.72311732 -19.4375 50.875 C-18.92645746 47.80409666 -18.19046149 44.82372346 -17.390625 41.81640625 C-17.17815125 40.98721176 -16.96567749 40.15801727 -16.74676514 39.30369568 C-16.29795191 37.56204021 -15.84387799 35.82173259 -15.38476562 34.08276367 C-14.6910639 31.45102062 -14.01615078 28.8149905 -13.34375 26.17773438 C-6.50746597 -0.3337162 -6.50746597 -0.3337162 0 0 Z "
     fill="#FE9148"
     transform="translate(295.4375,20.125)"
     id="path16" />
  <path
     d="M0 0 C2.60815884 2.6656944 2.98311745 3.68485908 3.1875 7.5 C1.95715324 11.12628518 1.79026378 11.60383901 -1.3125 13.375 C-5.80174575 15.28634256 -10.17455392 15.40848663 -14.99609375 15.66796875 C-18.83517008 16.09231399 -21.86665783 17.33885827 -25.375 18.890625 C-30.43456123 21.02889195 -35.73542822 22.45606308 -41 24 C-42.010625 24.31453125 -43.02125 24.6290625 -44.0625 24.953125 C-53.37147177 27.73569808 -53.37147177 27.73569808 -58 26 C-59.9375 24.25 -59.9375 24.25 -61 22 C-61 18.4781908 -60.3106183 17.3106183 -57.8125 14.8125 C-52.32399901 11.27546603 -47.27159815 10.72986833 -40.87890625 10.44140625 C-37.98352833 9.99747449 -35.66136365 9.08884046 -33.00610352 7.88012695 C-28.9898178 6.11808363 -24.8323888 4.73777045 -20.6875 3.3125 C-19.80126953 2.99216797 -18.91503906 2.67183594 -18.00195312 2.34179688 C-12.26274266 0.37849293 -6.06038745 -1.46008871 0 0 Z "
     fill="#FE9249"
     transform="translate(454,175)"
     id="path17" />
  <path
     d="M0 0 C3.89136348 0.46696362 4.63713884 1.4253203 7.125 4.375 C12.3820272 14.54381679 14.58650028 26.29912492 17.125 37.375 C17.29837891 38.11202148 17.47175781 38.84904297 17.65039062 39.60839844 C20.88369082 53.47552061 20.88369082 53.47552061 19.125 60.375 C17.125 62.375 17.125 62.375 14.25 62.8125 C11.125 62.375 11.125 62.375 9.08422852 60.37353516 C6.66195799 56.66632935 5.69660961 53.22745928 4.65234375 48.9609375 C4.44315811 48.15065094 4.23397247 47.34036438 4.01844788 46.50552368 C3.35453413 43.92322505 2.70814394 41.33692028 2.0625 38.75 C1.62553161 37.03485451 1.18739121 35.32000716 0.74804688 33.60546875 C0.11006779 31.1139365 -0.52605679 28.62204682 -1.15452576 26.12809753 C-2.47892581 20.87289565 -3.88506481 15.64902734 -5.41064453 10.44799805 C-6.06883017 7.50969402 -5.82147485 5.21442456 -4.875 2.375 C-2.875 0.375 -2.875 0.375 0 0 Z "
     fill="#FE9248"
     transform="translate(180.875,20.625)"
     id="path18" />
  <path
     d="M0 0 C2.92761527 0.32529059 5.32615294 0.59569177 7.875 2.125 C10.12254291 5.87090485 9.15059906 10.30227777 8.265625 14.40234375 C7.76289063 16.15224609 7.76289063 16.15224609 7.25 17.9375 C6.87755624 19.26133969 6.5065077 20.58557254 6.13671875 21.91015625 C5.9464209 22.58578613 5.75612305 23.26141602 5.56005859 23.95751953 C4.83712511 26.59398925 4.18666496 29.24515999 3.54174805 31.90161133 C1.96684897 38.38653706 0.26766208 44.83236951 -1.5625 51.25 C-1.76029053 51.96526855 -1.95808105 52.68053711 -2.16186523 53.41748047 C-3.2396789 57.12338164 -4.25201143 60.22397073 -7 63 C-10.61074844 63.61459548 -12.30138841 63.45961289 -15.375 61.4375 C-17.51053181 58.23420228 -17.43559337 55.70339608 -17 52 C-16.14372297 48.43858201 -15.01439654 44.9796987 -13.875 41.5 C-10.93353381 32.25592729 -8.35290755 22.98285377 -6.13037109 13.5390625 C-4.8224209 8.23517743 -3.36316945 4.32819024 0 0 Z "
     fill="#FE9249"
     transform="translate(192,395)"
     id="path19" />
  <path
     d="M0 0 C1.28051991 0.3926467 2.55749541 0.79700207 3.83105469 1.21166992 C4.52374451 1.42651535 5.21643433 1.64136078 5.93011475 1.86271667 C8.12453168 2.54529012 10.31378465 3.24286209 12.50292969 3.94213867 C15.38158567 4.84947817 18.26223054 5.75034352 21.14355469 6.64916992 C22.18596565 6.9762796 22.18596565 6.9762796 23.24943542 7.30999756 C28.40617364 8.91222579 33.59432199 10.27977046 38.85668945 11.49707031 C42.25151645 12.3932493 45.71862385 13.59533283 48.25292969 16.12963867 C48.72101479 21.5126174 48.72101479 21.5126174 46.87792969 23.94213867 C43.32682013 26.53718027 41.02920475 26.12946059 36.80712891 25.60180664 C32.46425301 24.79898481 28.4339525 23.25609436 24.31542969 21.69213867 C18.43751575 19.47707398 12.76524709 17.69800816 6.58081055 16.56152344 C-1.7366512 15.01840966 -9.79577173 13.43101364 -15.74707031 7.12963867 C-15.40154644 4.57276198 -14.99620018 2.55462492 -13.68457031 0.31713867 C-9.62373374 -2.17176116 -4.41513011 -1.0255368 0 0 Z "
     fill="#FE9249"
     transform="translate(408.7470703125,276.870361328125)"
     id="path20" />
  <path
     d="M 0,0 C 1.6960449,1.1584473 1.6960449,1.1584473 3,3 3.3723145,5.6638184 3.3723145,5.6638184 3.3632813,8.8398438 L 3.3613281,12.310547 3.3125,15.9375 l 0.00977,3.615234 c -0.055442,8.966528 -0.0185,9.15124 -0.2839083,11.581942 -0.037911,2.072602 -0.3334499,2.626738 -0.3760156,4.299406 L 3,38 c 0.4707249,3.616736 0.4614851,7.230524 0.5,10.875 l 0.125,2.933594 C 3.68134,56.984835 3.4070694,60.176524 -0.03125,64.195312 -0.99654943,65.155262 -1.9782444,66.100377 -3,67 -4.8125,66.8125 -4.8125,66.8125 -7,66 -9.7137489,62.321799 -10.377481,59.685652 -10.388184,55.155762 l -0.02866,-3.488312 0.0184,-3.737763 -0.0087,-3.858123 c -0.002,-2.688393 0.002,-5.375965 0.01602,-8.06424 0.01713,-3.444644 0.0072,-6.888589 -0.01072,-10.333208 -0.01344,-3.289835 -0.004,-6.579585 0.0034,-9.869428 l -0.0184,-3.750031 0.02866,-3.4692078 0.0072,-3.056427 C -10,3 -10,3 -8.6944885,1.1743469 -5.8521732,-0.79548892 -3.3320317,-0.3570034 0,0 Z"
     fill="#fe9249"
     transform="translate(242,10)"
     id="path21"
     sodipodi:nodetypes="cccccccccccccccccccccccccc" />
  <path
     d="M0 0 C3 0.75 3 0.75 6 2.75 C6.68544942 4.40903023 7.34751785 6.07772931 8 7.75 C9.5372242 10.40979278 11.20944107 12.98161203 12.875 15.5625 C15.88446925 20.22851687 18.60842886 24.87807426 21.03515625 29.87280273 C22.48701266 32.69753045 24.25712141 35.2660714 26.0625 37.875 C33.05834961 47.99951172 33.05834961 47.99951172 32.875 53.5 C32 56.75 32 56.75 29 58.75 C25.34418354 58.67052573 23.48763701 58.13931021 20.6171875 55.84765625 C16.27772454 51.30872454 14.24257074 45.0729654 11.75 39.41015625 C9.40012791 34.2330943 7.26078948 30.63589768 3 26.75 C1.84765625 24.64453125 1.84765625 24.64453125 1.0625 22.5625 C-0.40027547 18.93578395 -2.17314621 15.83561272 -4.3125 12.5625 C-6.29989276 9.3354961 -6.99339411 8.11993003 -7.0625 4.25 C-5.48705186 0.54306319 -3.99661811 -0.33305151 0 0 Z "
     fill="#FE9249"
     transform="translate(322,378.25)"
     id="path22" />
  <path
     d="M0 0 C0.59355614 2.64860427 0.74209269 5.29197322 1 8 C-1.69327373 10.19586732 -3.90073261 11.47327416 -7.25 12.375 C-11.76888674 13.65092096 -16.26655881 14.97968706 -20.75 16.375 C-21.4315918 16.58664795 -22.11318359 16.7982959 -22.81542969 17.01635742 C-27.4216984 18.4627258 -31.962791 20.03716325 -36.5 21.6875 C-50.78082192 26.84806974 -50.78082192 26.84806974 -57 26 C-60.08884321 23.88658096 -60.87108765 22.68753254 -61.5625 19 C-61 16 -61 16 -58.875 13.75 C-54.50511553 11.09007032 -50.44020693 10.0633012 -45.4375 9.3125 C-38.62021019 8.15909333 -32.20827555 5.84215391 -25.70092773 3.5637207 C-6.32232967 -3.16116484 -6.32232967 -3.16116484 0 0 Z "
     fill="#FE9248"
     transform="translate(81,277)"
     id="path23" />
  <path
     d="M 0,0 C 2.7046832,1.721162 4.5391352,2.9885445 5.8828125,5.9375 7.2582468,8.4767633 8.7861371,9.5712343 11.125,11.25 24.144968,21.109782 28,28 28,28 c 1.462073,1.266529 2.919529,2.538389 4.375,3.8125 l 2.460937,2.144531 C 37,36 37,36 39,39 c 1.767021,2.874034 3,6 3,6 0.815256,3.353618 1.667325,5.404004 -2,8 -3.090594,0.558891 -7.632666,-1.877284 -11.3125,-5.25 L 26.074219,45.421875 C 23.861977,42.838843 19.507663,36.730853 14.402344,33.207031 L 11.9375,30.8125 9.4648438,28.457031 7,26 4.5195312,23.535156 2,21 -0.640625,18.351562 -3.25,15.625 -5.890625,12.914063 C -8.3631141,9.4983646 -8.8252974,7.1778879 -9,3 -6.9371392,-0.76168735 -3.9611091,-0.55455527 0,0 Z"
     fill="#fe934a"
     transform="translate(359,351)"
     id="path24"
     sodipodi:nodetypes="cccccccccccccccccccccc" />
  <path
     d="M0 0 C6.35245828 0.36648798 6.35245828 0.36648798 9.10717773 3.06152344 C11.34244651 6.53162469 12.22360479 9.8438734 13.03515625 13.828125 C13.1999498 14.57656677 13.36474335 15.32500854 13.53453064 16.09613037 C14.05688482 18.47814602 14.56064411 20.86358955 15.0625 23.25 C15.73403901 26.38171786 16.41376183 29.5115838 17.09765625 32.640625 C17.25938828 33.38771225 17.4211203 34.1347995 17.5877533 34.90452576 C18.44105462 38.76868158 19.40589829 42.50089935 20.7265625 46.23828125 C21.90656969 49.72400802 22.38054244 52.28937868 22.3125 55.9375 C22.30863281 56.85402344 22.30476563 57.77054687 22.30078125 58.71484375 C22 61 22 61 20 63 C17.625 63.4375 17.625 63.4375 15 63 C11.80182406 59.61907115 10.33991953 56.72343146 9.1875 52.25 C8.70410156 50.43048828 8.70410156 50.43048828 8.2109375 48.57421875 C8.02756836 47.87216309 7.84419922 47.17010742 7.65527344 46.44677734 C6.87806607 43.54470124 6.05398306 40.65768917 5.2265625 37.76953125 C4.91178955 36.66641602 4.5970166 35.56330078 4.27270508 34.42675781 C3.64169852 32.21590851 3.00878055 30.00560369 2.3737793 27.79589844 C0.88346428 22.51836713 -0.31199432 17.43600094 -1 12 C-1.33 11.67 -1.66 11.34 -2 11 C-2.36090226 3.54135338 -2.36090226 3.54135338 0 0 Z "
     fill="#FE9148"
     transform="translate(278,395)"
     id="path25" />
  <path
     d="M 0,0 C 3.0625,0.25 3.0625,0.25 6.0625,2.25 6.4770994,4.8641917 6.6739811,7.2426389 6.75,9.875 l 0.090332,2.433594 C 6.9357812,15.288791 6.9983401,18.268965 7.0625,21.25 l 0.1147461,3.983398 c 0.1024555,3.611163 0.1728143,7.221933 0.2242737,10.834168 0.023971,1.453972 0.056004,2.907834 0.09613,4.36145 0.053886,2.06581 0.075032,4.129565 0.088287,6.195984 l 0.060059,3.648437 C 7.0625,53.25 6.2848513,59.358039 6.2848513,59.358039 5.6335851,65.455957 0.72136433,66.720528 -4.3125,63.75 l -1.625,-1.5 C -6.628262,55.508417 -6.1256717,55.938951 -5.990967,47.464844 l 0.041336,-3.013428 0.062912,-3.263916 0.057175,-3.340088 c 0.041927,-2.333628 0.086669,-4.667207 0.1339875,-7.000732 0.070261,-3.581606 0.1245505,-7.163226 0.1779785,-10.745118 0.042641,-2.263039 0.086229,-4.526061 0.1308594,-6.789062 l 0.04451,-3.263916 0.069992,-3.0134278 0.049515,-2.6599121 C -4.7440065,0.80814178 -3.4557261,0.29410435 0,0 Z"
     fill="#fe934a"
     id="path26"
     transform="translate(237.9375,401.75)"
     sodipodi:nodetypes="cccccccccccccccccccccccc" />
  <path
     d="m 293.28705,216.91037 c 2.73681,6.0155 -0.36005,18.36277 -12.46536,18.88784 -4.72723,-0.3315 -7.61386,-1.35665 -11.00574,-5.03882 -2.79338,-4.41486 -3.70254,-8.81906 -1.87769,-13.84902 1.68185,-4.52028 15.23153,-15.99012 25.34879,0 z"
     fill="#393835"
     id="RightEye"
     sodipodi:nodetypes="ccccc"
     style="stroke-width:0.964;fill:#41403c;fill-opacity:1;stroke-dasharray:none"
     inkscape:label="RightEye" />
  <path
     d="m 197.21246,208.98802 c 3.44328,1.6168 12.50169,5.98789 7.42219,19.43784 -2.3478,3.60268 -4.32582,5.04925 -8.3799,6.39954 -5.08477,0.32779 -8.37903,0.51906 -12.45013,-2.87082 -3.39722,-3.85325 -4.60008,-7.08686 -4.40318,-12.1337 0.92411,-3.58488 4.60327,-12.77363 17.81102,-10.83286 z"
     fill="#393837"
     id="LeftEye"
     sodipodi:nodetypes="cccccc"
     style="stroke-width:0.957321;fill:#42413f;fill-opacity:1"
     inkscape:label="LeftEye" />
  <path
     d="m 211.77186,251.91078 c 4.81273,0.43048 7.67702,2.06875 11.50687,4.6888 6.70151,4.55673 12.04293,5.65283 20.31459,4.6888 5.48486,-1.81671 10.11037,-4.23858 14.56116,-7.68442 2.48605,-1.69318 2.48605,-1.69318 5.6824,-1.43269 6.0037,1.88721 1.84421,7.51487 -0.17757,9.80496 -2.28097,2.35608 -5.20276,4.19953 -8.92413,6.568 -5.11694,3.18255 -22.92893,2.67311 -26.73542,1.38777 -4.36196,-1.50716 -7.04078,-2.56879 -10.49222,-4.99271 -3.28835,-2.45721 -5.63541,-4.55497 -8.00864,-7.81873 -1.04955,-2.89496 0.20997,-4.81958 2.27296,-5.20978 z"
     fill="#F3F4F0"
     id="path29"
     style="fill:#40403d;fill-opacity:1;stroke-width:1.08819"
     sodipodi:nodetypes="ccccccccccc" />
</svg>
